<svg width="111" height="52" viewBox="0 0 111 52" fill="none" xmlns="http://www.w3.org/2000/svg">
<path d="M19.7266 36.6033H88.0857L86.1477 42.8526H17.26L19.7266 36.6033Z" fill="#CCEEFF"/>
<path d="M1.54745 24C1.54745 21.3336 1.54745 18.6355 1.54745 15.9056C1.54745 13.1758 1.54745 10.4776 1.54745 7.81126C2.53147 7.81126 3.52343 7.81126 4.52332 7.81126C5.52322 7.81126 6.51517 7.81126 7.4992 7.81126C7.95946 9.43013 8.4118 11.0728 8.85619 12.7393C9.31646 14.3899 9.76879 16.0247 10.2132 17.6435C10.6576 16.0247 11.102 14.3899 11.5464 12.7393C12.0066 11.0728 12.459 9.43013 12.9034 7.81126C13.8874 7.81126 14.8714 7.81126 15.8554 7.81126C16.8395 7.81126 17.8156 7.81126 18.7837 7.81126C18.7996 10.4776 18.8154 13.1758 18.8313 15.9056C18.8472 18.6355 18.8631 21.3336 18.8789 24C18.2123 24 17.5378 24 16.8553 24C16.1887 24 15.5221 24 14.8555 24C14.8555 22.1907 14.8555 20.3655 14.8555 18.5244C14.8555 16.6675 14.8555 14.8343 14.8555 13.025C14.3794 14.8343 13.8953 16.6675 13.4033 18.5244C12.9113 20.3655 12.4272 22.1907 11.9511 24C11.3639 24 10.7608 24 10.1418 24C9.53866 24 8.93555 24 8.33244 24C7.8563 22.2224 7.38016 20.429 6.90402 18.6196C6.42788 16.7944 5.95174 14.993 5.4756 13.2154C5.4756 14.993 5.4756 16.7944 5.4756 18.6196C5.4756 20.429 5.4756 22.2224 5.4756 24C4.84075 24 4.19003 24 3.52343 24C2.85684 24 2.19818 24 1.54745 24ZM23.8403 10.2872C23.38 10.2872 22.9594 10.1761 22.5785 9.95389C22.2135 9.73169 21.9198 9.43807 21.6976 9.07303C21.4754 8.70799 21.3643 8.30327 21.3643 7.85887C21.3643 7.41448 21.4754 7.01769 21.6976 6.66852C21.9198 6.30348 22.2135 6.00986 22.5785 5.78767C22.9594 5.56547 23.38 5.45437 23.8403 5.45437C24.2847 5.45437 24.6894 5.56547 25.0544 5.78767C25.4353 6.00986 25.7369 6.30348 25.9591 6.66852C26.1813 7.01769 26.2924 7.41448 26.2924 7.85887C26.2924 8.30327 26.1813 8.70799 25.9591 9.07303C25.7369 9.43807 25.4353 9.73169 25.0544 9.95389C24.6894 10.1761 24.2847 10.2872 23.8403 10.2872ZM21.8643 24C21.8643 21.9685 21.8643 19.9211 21.8643 17.8578C21.8643 15.7787 21.8643 13.7233 21.8643 11.6918C22.515 11.6918 23.1737 11.6918 23.8403 11.6918C24.5069 11.6918 25.1576 11.6918 25.7924 11.6918C25.7924 13.7233 25.7924 15.7787 25.7924 17.8578C25.7924 19.9211 25.7924 21.9685 25.7924 24C25.1576 24 24.5069 24 23.8403 24C23.1737 24 22.515 24 21.8643 24ZM28.534 24C28.534 21.9685 28.534 19.9211 28.534 17.8578C28.534 15.7787 28.534 13.7233 28.534 11.6918C29.1847 11.6918 29.8433 11.6918 30.5099 11.6918C31.1765 11.6918 31.8273 11.6918 32.4621 11.6918C32.4621 11.8029 32.4621 11.9061 32.4621 12.0013C32.4621 12.0965 32.4621 12.1997 32.4621 12.3108C32.8906 12.0092 33.3668 11.7791 33.8905 11.6204C34.4301 11.4458 35.0095 11.3585 35.6284 11.3585C36.5331 11.3585 37.3267 11.5648 38.0091 11.9775C38.7075 12.3901 39.2471 12.9853 39.628 13.763C40.0248 14.5248 40.2232 15.4454 40.2232 16.5246C40.2232 17.7626 40.2232 19.0085 40.2232 20.2623C40.2232 21.5161 40.2232 22.762 40.2232 24C39.5883 24 38.9376 24 38.271 24C37.6044 24 36.9458 24 36.295 24C36.295 22.8573 36.295 21.6987 36.295 20.5242C36.295 19.3497 36.295 18.1911 36.295 17.0484C36.295 16.4135 36.1443 15.9056 35.8427 15.5247C35.557 15.1279 35.0967 14.9295 34.4619 14.9295C33.827 14.9295 33.335 15.1121 32.9859 15.4771C32.6367 15.8421 32.4621 16.3659 32.4621 17.0484C32.4621 18.1911 32.4621 19.3497 32.4621 20.5242C32.4621 21.6987 32.4621 22.8573 32.4621 24C31.8273 24 31.1765 24 30.5099 24C29.8433 24 29.1847 24 28.534 24ZM50.8595 24C50.8595 23.873 50.8595 23.754 50.8595 23.6429C50.8595 23.5159 50.8595 23.3969 50.8595 23.2858C50.4627 23.6191 50.0104 23.873 49.5025 24.0476C49.0105 24.2381 48.4788 24.3333 47.9074 24.3333C47.098 24.3333 46.3362 24.1746 45.622 23.8572C44.9078 23.5397 44.2729 23.0953 43.7174 22.524C43.1778 21.9367 42.7493 21.2463 42.4318 20.4528C42.1303 19.6592 41.9795 18.7863 41.9795 17.834C41.9795 16.8658 42.1303 15.985 42.4318 15.1914C42.7493 14.3979 43.1778 13.7154 43.7174 13.144C44.2729 12.5727 44.9078 12.1362 45.622 11.8346C46.3362 11.5172 47.0901 11.3585 47.8836 11.3585C48.455 11.3585 48.9946 11.4537 49.5025 11.6442C50.0104 11.8188 50.4627 12.0648 50.8595 12.3822C50.8595 11.4299 50.8595 10.4697 50.8595 9.50155C50.8595 8.5334 50.8595 7.57319 50.8595 6.62091C51.5102 6.62091 52.1689 6.62091 52.8355 6.62091C53.5021 6.62091 54.1528 6.62091 54.7877 6.62091C54.7877 9.49362 54.7877 12.3901 54.7877 15.3105C54.7877 18.2308 54.7877 21.1273 54.7877 24C54.1528 24 53.5021 24 52.8355 24C52.1689 24 51.5102 24 50.8595 24ZM48.4312 20.8575C49.193 20.8575 49.8041 20.5797 50.2643 20.0242C50.7246 19.4687 50.9547 18.7387 50.9547 17.834C50.9547 16.9293 50.7246 16.2072 50.2643 15.6676C49.8041 15.1121 49.193 14.8343 48.4312 14.8343C47.6535 14.8343 47.0345 15.1041 46.5742 15.6438C46.1298 16.1834 45.9077 16.9135 45.9077 17.834C45.9077 18.7545 46.1298 19.4925 46.5742 20.048C47.0345 20.5877 47.6535 20.8575 48.4312 20.8575ZM57.7635 24C57.7635 21.3336 57.7635 18.6355 57.7635 15.9056C57.7635 13.1758 57.7635 10.4776 57.7635 7.81126C58.4619 7.81126 59.1602 7.81126 59.8585 7.81126C60.5569 7.81126 61.2473 7.81126 61.9297 7.81126C61.9297 9.85866 61.9297 11.9299 61.9297 14.0249C61.9297 16.104 61.9297 18.1673 61.9297 20.2147C62.7709 20.2147 63.62 20.2147 64.4771 20.2147C65.3341 20.2147 66.1753 20.2147 67.0006 20.2147C67.0006 20.8337 67.0006 21.4685 67.0006 22.1192C67.0006 22.7541 67.0006 23.381 67.0006 24C65.477 24 63.9375 24 62.3821 24C60.8267 24 59.2872 24 57.7635 24ZM74.6339 24.3809C73.7134 24.3809 72.8563 24.2222 72.0628 23.9048C71.2692 23.5715 70.5788 23.1112 69.9916 22.524C69.4043 21.9209 68.9441 21.2225 68.6108 20.429C68.2933 19.6354 68.1346 18.7704 68.1346 17.834C68.1346 16.8976 68.2933 16.0326 68.6108 15.239C68.9441 14.4455 69.4043 13.7551 69.9916 13.1678C70.5788 12.5806 71.2692 12.1283 72.0628 11.8108C72.8563 11.4775 73.7134 11.3109 74.6339 11.3109C75.5703 11.3109 76.4274 11.4775 77.2051 11.8108C77.9986 12.1283 78.689 12.5806 79.2763 13.1678C79.8635 13.7551 80.3159 14.4455 80.6333 15.239C80.9666 16.0326 81.1332 16.8976 81.1332 17.834C81.1332 18.7704 80.9666 19.6354 80.6333 20.429C80.3159 21.2225 79.8635 21.9209 79.2763 22.524C78.689 23.1112 77.9986 23.5715 77.2051 23.9048C76.4274 24.2222 75.5703 24.3809 74.6339 24.3809ZM74.6339 20.8337C75.4116 20.8337 76.0306 20.5559 76.4909 20.0004C76.967 19.4291 77.2051 18.7069 77.2051 17.834C77.2051 16.9452 76.967 16.231 76.4909 15.6914C76.0306 15.1359 75.4116 14.8581 74.6339 14.8581C73.8562 14.8581 73.2293 15.1359 72.7532 15.6914C72.2929 16.231 72.0628 16.9452 72.0628 17.834C72.0628 18.7069 72.2929 19.4291 72.7532 20.0004C73.2293 20.5559 73.8562 20.8337 74.6339 20.8337ZM88.9088 24.3809C87.9883 24.3809 87.1312 24.2222 86.3377 23.9048C85.5441 23.5715 84.8537 23.1112 84.2664 22.524C83.6792 21.9209 83.2189 21.2225 82.8856 20.429C82.5682 19.6354 82.4095 18.7704 82.4095 17.834C82.4095 16.8976 82.5682 16.0326 82.8856 15.239C83.2189 14.4455 83.6792 13.7551 84.2664 13.1678C84.8537 12.5806 85.5441 12.1283 86.3377 11.8108C87.1312 11.4775 87.9883 11.3109 88.9088 11.3109C89.8452 11.3109 90.7023 11.4775 91.48 11.8108C92.2735 12.1283 92.9639 12.5806 93.5512 13.1678C94.1384 13.7551 94.5907 14.4455 94.9082 15.239C95.2415 16.0326 95.4081 16.8976 95.4081 17.834C95.4081 18.7704 95.2415 19.6354 94.9082 20.429C94.5907 21.2225 94.1384 21.9209 93.5512 22.524C92.9639 23.1112 92.2735 23.5715 91.48 23.9048C90.7023 24.2222 89.8452 24.3809 88.9088 24.3809ZM88.9088 20.8337C89.6865 20.8337 90.3055 20.5559 90.7658 20.0004C91.2419 19.4291 91.48 18.7069 91.48 17.834C91.48 16.9452 91.2419 16.231 90.7658 15.6914C90.3055 15.1359 89.6865 14.8581 88.9088 14.8581C88.1311 14.8581 87.5042 15.1359 87.0281 15.6914C86.5678 16.231 86.3377 16.9452 86.3377 17.834C86.3377 18.7069 86.5678 19.4291 87.0281 20.0004C87.5042 20.5559 88.1311 20.8337 88.9088 20.8337ZM101.279 27.8091C100.644 27.8091 99.9936 27.8091 99.327 27.8091C98.6604 27.8091 98.0017 27.8091 97.351 27.8091C97.351 25.1586 97.351 22.4764 97.351 19.7624C97.351 17.0325 97.351 14.3423 97.351 11.6918C98.0017 11.6918 98.6604 11.6918 99.327 11.6918C99.9936 11.6918 100.644 11.6918 101.279 11.6918C101.279 11.8029 101.279 11.914 101.279 12.0251C101.279 12.1362 101.279 12.2552 101.279 12.3822C101.676 12.0648 102.128 11.8188 102.636 11.6442C103.144 11.4537 103.684 11.3585 104.255 11.3585C105.049 11.3585 105.802 11.5172 106.517 11.8346C107.231 12.1362 107.858 12.5727 108.397 13.144C108.953 13.7154 109.381 14.3979 109.683 15.1914C110 15.985 110.159 16.8658 110.159 17.834C110.159 18.7863 110 19.6592 109.683 20.4528C109.381 21.2463 108.953 21.9367 108.397 22.524C107.858 23.0953 107.231 23.5397 106.517 23.8572C105.802 24.1746 105.041 24.3333 104.231 24.3333C103.66 24.3333 103.12 24.2381 102.612 24.0476C102.12 23.873 101.676 23.6191 101.279 23.2858C101.279 24.0317 101.279 24.7856 101.279 25.5475C101.279 26.3093 101.279 27.0632 101.279 27.8091ZM103.707 20.8575C104.485 20.8575 105.096 20.5877 105.541 20.048C106.001 19.4925 106.231 18.7545 106.231 17.834C106.231 16.9135 106.001 16.1834 105.541 15.6438C105.096 15.1041 104.485 14.8343 103.707 14.8343C102.946 14.8343 102.335 15.1121 101.874 15.6676C101.414 16.2072 101.184 16.9293 101.184 17.834C101.184 18.7387 101.414 19.4687 101.874 20.0242C102.335 20.5797 102.946 20.8575 103.707 20.8575Z" fill="#E3672A"/>
<path d="M31.6931 28.2671C31.7288 28.3028 31.7228 28.3445 31.6752 28.3921L31.2467 28.6778C31.211 28.7135 31.1693 28.7075 31.1217 28.6599C30.8479 28.279 30.4313 28.0885 29.8719 28.0885C29.4314 28.0885 29.0684 28.2135 28.7827 28.4635C28.497 28.7135 28.3542 29.0289 28.3542 29.4098C28.3542 29.8145 28.4315 30.1716 28.5863 30.4811C28.741 30.7787 28.9434 31.0525 29.1934 31.3025C29.4552 31.5405 29.848 31.8738 30.3718 32.3024C30.9551 32.7785 31.4312 33.207 31.8002 33.5879C32.1811 33.957 32.5085 34.4093 32.7823 34.9449C33.056 35.4687 33.1929 36.052 33.1929 36.6948C33.1929 37.2661 33.0501 37.778 32.7644 38.2303C32.4906 38.6707 32.1097 39.0159 31.6217 39.2659C31.1336 39.5159 30.5801 39.6409 29.9611 39.6409C29.2945 39.6409 28.6934 39.498 28.1578 39.2123C27.634 38.9148 27.2174 38.5041 26.9079 37.9803C26.5984 37.4566 26.4377 36.8614 26.4258 36.1948C26.4258 36.1353 26.4556 36.1055 26.5151 36.1055H27.015C27.0745 36.1055 27.1043 36.1353 27.1043 36.1948C27.1162 37.0162 27.39 37.6827 27.9256 38.1946C28.4613 38.7064 29.1398 38.9624 29.9611 38.9624C30.723 38.9624 31.336 38.7541 31.8002 38.3374C32.2764 37.9089 32.5144 37.3614 32.5144 36.6948C32.5144 36.1472 32.3954 35.6532 32.1573 35.2128C31.9193 34.7723 31.6395 34.3974 31.3181 34.0879C31.0086 33.7665 30.5504 33.3499 29.9433 32.838C29.3719 32.3619 28.9493 31.9869 28.6756 31.7131C28.4018 31.4394 28.1637 31.112 27.9613 30.7311C27.7709 30.3502 27.6757 29.9098 27.6757 29.4098C27.6757 28.8385 27.884 28.3623 28.3006 27.9814C28.7172 27.6005 29.241 27.41 29.8719 27.41C30.2528 27.41 30.6039 27.4874 30.9253 27.6422C31.2467 27.785 31.5026 27.9933 31.6931 28.2671ZM37.5755 30.9275C38.3017 30.9275 38.9444 31.118 39.5039 31.4989C40.0634 31.8798 40.4979 32.4155 40.8073 33.1059C41.1168 33.7844 41.2716 34.5759 41.2716 35.4806C41.2716 36.3019 41.1168 37.0281 40.8073 37.6589C40.4979 38.2779 40.0634 38.76 39.5039 39.1052C38.9444 39.4385 38.3017 39.6052 37.5755 39.6052C36.8851 39.6052 36.2781 39.4385 35.7543 39.1052C35.2306 38.76 34.8199 38.2779 34.5223 37.6589C34.2366 37.0281 34.0938 36.3019 34.0938 35.4806C34.0938 34.5759 34.2366 33.7844 34.5223 33.1059C34.8199 32.4155 35.2306 31.8798 35.7543 31.4989C36.2781 31.118 36.8851 30.9275 37.5755 30.9275ZM37.5755 31.606C37.0161 31.606 36.5221 31.7667 36.0936 32.0881C35.6769 32.4095 35.3496 32.8678 35.1115 33.463C34.8854 34.0462 34.7723 34.7188 34.7723 35.4806C34.7723 36.5162 35.0282 37.3494 35.5401 37.9803C36.0519 38.6112 36.7304 38.9267 37.5755 38.9267C38.4802 38.9267 39.2063 38.6112 39.7539 37.9803C40.3133 37.3494 40.5931 36.5162 40.5931 35.4806C40.5931 34.7188 40.4681 34.0462 40.2181 33.463C39.9681 32.8678 39.611 32.4095 39.1468 32.0881C38.6945 31.7667 38.1707 31.606 37.5755 31.606ZM41.9569 36.8555C41.9569 33.1059 41.9748 29.9276 42.0105 27.3208L42.7604 27.41C42.6533 30.8025 42.5997 33.7427 42.5997 36.2305C42.5997 37.2423 42.6116 38.3791 42.6354 39.6409L41.9569 39.6944V36.8555ZM51.4382 30.9275C51.4263 31.0823 51.4203 32.5523 51.4203 35.3378C51.4203 38.0994 51.4263 39.5397 51.4382 39.6587H50.7597C50.7478 39.5992 50.7418 39.0576 50.7418 38.0339C50.4204 38.6172 49.9979 39.0695 49.4741 39.3909C48.9623 39.7123 48.379 39.873 47.7243 39.873C46.1649 39.873 45.0639 39.3492 44.4211 38.3017C43.7902 37.2423 43.4747 35.7127 43.4747 33.7129C43.4747 32.7964 43.5164 31.8977 43.5997 31.0168C43.6116 30.993 43.6295 30.9692 43.6533 30.9454C43.6771 30.9216 43.7009 30.9156 43.7247 30.9275L44.2068 31.0168C44.2306 31.0168 44.2485 31.0287 44.2604 31.0525C44.2723 31.0763 44.2782 31.1001 44.2782 31.1239C44.183 32.2071 44.1354 33.1416 44.1354 33.9272C44.1354 35.677 44.4032 36.9923 44.9389 37.8732C45.4864 38.7541 46.4149 39.1945 47.7243 39.1945C48.5932 39.1945 49.2956 38.8612 49.8312 38.1946C50.3788 37.5161 50.6823 36.6114 50.7418 35.4806V33.6415C50.7418 31.9274 50.7478 31.0227 50.7597 30.9275H51.4382ZM56.9256 42.462C56.9732 42.4739 56.997 42.5096 56.997 42.5691L56.9256 43.0691C56.9256 43.0929 56.9137 43.1107 56.8899 43.1226C56.8661 43.1464 56.8423 43.1524 56.8185 43.1405C55.271 42.8786 54.164 42.0573 53.4974 40.6765C52.8308 39.3076 52.4975 37.4387 52.4975 35.0699C52.4975 33.9986 52.5511 32.8559 52.6582 31.6417L52.1582 31.6596V30.9811L52.7296 30.9632C52.7891 30.2014 52.8903 29.3146 53.0332 28.3028C53.057 28.1957 53.0927 28.1481 53.1403 28.16L53.6402 28.2314C53.6997 28.2552 53.7236 28.2909 53.7117 28.3385C53.6521 28.8027 53.5986 29.2194 53.551 29.5884C53.5152 29.9574 53.4795 30.2847 53.4438 30.5704C53.4438 30.6656 53.4319 30.7966 53.4081 30.9632H54.1045C54.783 30.9632 55.1579 30.9692 55.2293 30.9811V31.6596C55.1579 31.6477 54.7711 31.6417 54.0688 31.6417H53.3545C53.2355 33.0701 53.176 34.2367 53.176 35.1414C53.176 37.4744 53.4795 39.2183 54.0866 40.3729C54.6937 41.5395 55.64 42.2358 56.9256 42.462ZM58.1495 30.3026C58.2685 30.2669 58.3578 30.2014 58.4173 30.1062C58.4888 29.999 58.5245 29.886 58.5245 29.7669C58.5245 29.6122 58.465 29.4812 58.3459 29.3741C58.2388 29.2551 58.1198 29.1956 57.9888 29.1956C57.846 29.1956 57.7329 29.2432 57.6496 29.3384C57.5662 29.4336 57.5246 29.5527 57.5246 29.6955C57.5246 29.8741 57.5841 30.0348 57.7031 30.1776C57.8341 30.3085 57.9829 30.3502 58.1495 30.3026ZM57.7388 39.6409C57.7626 39.3076 57.7746 37.8315 57.7746 35.2128C57.7746 32.5583 57.7626 31.1239 57.7388 30.9097H58.4173C58.4411 31.1477 58.4531 32.594 58.4531 35.2485C58.4531 37.8911 58.4411 39.3552 58.4173 39.6409H57.7388ZM62.545 30.9275C63.2711 30.9275 63.9139 31.118 64.4733 31.4989C65.0328 31.8798 65.4673 32.4155 65.7768 33.1059C66.0863 33.7844 66.241 34.5759 66.241 35.4806C66.241 36.3019 66.0863 37.0281 65.7768 37.6589C65.4673 38.2779 65.0328 38.76 64.4733 39.1052C63.9139 39.4385 63.2711 39.6052 62.545 39.6052C61.8546 39.6052 61.2475 39.4385 60.7237 39.1052C60.2 38.76 59.7893 38.2779 59.4917 37.6589C59.206 37.0281 59.0632 36.3019 59.0632 35.4806C59.0632 34.5759 59.206 33.7844 59.4917 33.1059C59.7893 32.4155 60.2 31.8798 60.7237 31.4989C61.2475 31.118 61.8546 30.9275 62.545 30.9275ZM62.545 31.606C61.9855 31.606 61.4915 31.7667 61.063 32.0881C60.6464 32.4095 60.319 32.8678 60.0809 33.463C59.8548 34.0462 59.7417 34.7188 59.7417 35.4806C59.7417 36.5162 59.9976 37.3494 60.5095 37.9803C61.0213 38.6112 61.6998 38.9267 62.545 38.9267C63.4496 38.9267 64.1757 38.6112 64.7233 37.9803C65.2828 37.3494 65.5625 36.5162 65.5625 35.4806C65.5625 34.7188 65.4375 34.0462 65.1875 33.463C64.9376 32.8678 64.5805 32.4095 64.1162 32.0881C63.6639 31.7667 63.1401 31.606 62.545 31.606ZM70.6759 30.6954C72.2353 30.6954 73.3304 31.2251 73.9613 32.2845C74.6041 33.332 74.9255 34.8557 74.9255 36.8555C74.9255 37.772 74.8838 38.6707 74.8005 39.5516C74.7886 39.5754 74.7707 39.5992 74.7469 39.623C74.7231 39.6468 74.6993 39.6528 74.6755 39.6409L74.1934 39.5516C74.1696 39.5516 74.1517 39.5397 74.1398 39.5159C74.1279 39.4921 74.122 39.4683 74.122 39.4445C74.2172 38.3612 74.2648 37.4268 74.2648 36.6412C74.2648 34.8914 73.9911 33.576 73.4435 32.6952C72.9078 31.8143 71.9853 31.3739 70.6759 31.3739C69.807 31.3739 69.0987 31.7131 68.5512 32.3916C68.0155 33.0582 67.7179 33.957 67.6584 35.0878V36.9269C67.6584 38.641 67.6524 39.5456 67.6405 39.6409H66.962C66.9859 39.3076 66.9978 37.8315 66.9978 35.2128C66.9978 32.5583 66.9859 31.1239 66.962 30.9097H67.6405C67.6524 30.9692 67.6584 31.5108 67.6584 32.5345C67.9798 31.9512 68.3964 31.4989 68.9083 31.1775C69.432 30.8561 70.0212 30.6954 70.6759 30.6954ZM79.3416 31.6239C79.1035 31.4334 78.8357 31.3382 78.5381 31.3382C78.2167 31.3382 77.937 31.4572 77.6989 31.6953C77.4608 31.9215 77.3418 32.219 77.3418 32.5881C77.3418 33.0047 77.4906 33.3856 77.7882 33.7308C78.0858 34.0641 78.5321 34.4688 79.1273 34.9449C79.663 35.3735 80.0736 35.7484 80.3593 36.0698C80.6569 36.3793 80.8295 36.7245 80.8771 37.1054C80.9009 37.2959 80.9128 37.4328 80.9128 37.5161C80.9128 38.147 80.7105 38.6588 80.3058 39.0516C79.901 39.4445 79.3594 39.6409 78.6809 39.6409C77.7763 39.6409 77.0442 39.3552 76.4847 38.7838C75.9253 38.2005 75.6455 37.4387 75.6455 36.4983H76.324C76.324 37.2483 76.5383 37.8494 76.9668 38.3017C77.3954 38.7422 77.9667 38.9624 78.6809 38.9624C79.169 38.9624 79.5439 38.8374 79.8058 38.5874C80.0796 38.3255 80.2165 37.9625 80.2165 37.4982C80.2165 37.3792 80.2105 37.284 80.1986 37.2126C80.1629 36.9388 80.032 36.6829 79.8058 36.4448C79.5796 36.2067 79.2106 35.8853 78.6988 35.4806C78.2584 35.1235 77.9072 34.82 77.6453 34.57C77.3835 34.32 77.1513 34.0284 76.949 33.6951C76.7585 33.3499 76.6633 32.9809 76.6633 32.5881C76.6633 32.0286 76.8478 31.5644 77.2168 31.1953C77.5858 30.8263 78.0262 30.6418 78.5381 30.6418C78.9785 30.6418 79.3892 30.7906 79.7701 31.0882L79.3416 31.6239Z" fill="#E3672A"/>
</svg>
